<svg width="0" height="0" class="hidden"><symbol xmlns="http://www.w3.org/2000/svg" viewBox="0 0 64 64" id="checkbox-confirm-circle-1"><title>Checkbox Confirm Circle</title><desc>A flat styled icon from Orion Icon Library.</desc><circle data-name="layer2" cx="28" cy="36" r="26" fill="#5ade9c"></circle><path data-name="opacity" d="M14.991 29.529L2.65 41.775a26.748 26.748 0 0 0 12.142 16.684l13.75-13.864z" fill="#000064" opacity=".15"></path><path data-name="layer1" d="M27.74 45a1 1 0 0 1-.759-.349l-12-14a1 1 0 1 1 1.519-1.3l11.218 13.087L60.963 1.371a1 1 0 1 1 1.555 1.258l-34 42a1 1 0 0 1-.763.371z" fill="#3f5275"></path></symbol><symbol xmlns="http://www.w3.org/2000/svg" viewBox="0 0 64 64" id="video-camera-1"><title>Video Camera</title><desc>A flat styled icon from Orion Icon Library.</desc><rect data-name="layer2" x="2" y="2" width="60" height="60" rx="10" ry="10" fill="#44e0b3"></rect><path data-name="opacity" d="M12 62h19.063l20.96-20.96L14.5 21.358 2 33.859V52a10 10 0 0 0 10 10z" fill="#000064" opacity=".15"></path><path data-name="layer1" d="M40 28v-5.547A1.476 1.476 0 0 0 38.5 21h-23a1.477 1.477 0 0 0-1.5 1.453v19.093A1.478 1.478 0 0 0 15.5 43h23a1.477 1.477 0 0 0 1.5-1.454V36l12 5V23z" fill="#fff"></path></symbol><symbol xmlns="http://www.w3.org/2000/svg" viewBox="0 0 64 64" id="save-file-1"><title>Save File</title><desc>A flat styled icon from Orion Icon Library.</desc><path data-name="layer3" fill="#cbe1f0" d="M4 18L20 2v16H4z"></path><path data-name="opacity" fill="#fff" opacity=".5" d="M4 18L20 2v16H4z"></path><path data-name="layer3" fill="#cbe1f0" d="M20 2v16H4v38h40V2H20z"></path><path data-name="opacity" fill="#000064" opacity=".12" d="M4 34V18h16L4 34zm7.371 22H44v-9.999L32.685 34.685 11.371 56z"></path><circle data-name="layer2" cx="44" cy="46" r="16" fill="#1bd466"></circle><path data-name="layer1" d="M43.039 52.458l-5.746-5.751a1 1 0 0 1 1.415-1.413l4.246 4.249 7.291-8.207a1 1 0 1 1 1.5 1.328z" fill="#fff"></path></symbol><symbol xmlns="http://www.w3.org/2000/svg" viewBox="0 0 64 64" id="verify-woman-user-1"><title>Verify Woman User</title><desc>A flat styled icon from Orion Icon Library.</desc><path data-name="layer3" d="M37.256 14.237c0 13.451 2.283 14.821 5.484 18.02a63.344 63.344 0 0 1-13.663 1.567v1.568c0 1.568 1.127 4.687 8.924 6.253 7.873 1.58 7.873 7.848 7.873 7.848H2s0-6.269 8-7.848c7.969-1.577 8.774-4.688 8.774-6.255v-1.566a63.579 63.579 0 0 1-13.64-1.568c3.2-3.2 6.267-4.569 6.268-18.019 0 0 0-10.969 9.4-10.969-.002 0 16.454-5.075 16.454 10.969z" fill="#c3d6f9"></path><path data-name="opacity" fill="#000064" opacity=".1" d="M44.017 49.493l-8.445-8.445-8.445 8.445h16.89z"></path><circle data-name="layer2" cx="48" cy="47.494" r="14" fill="#1bd466"></circle><path data-name="layer1" d="M47 52.494a1 1 0 0 1-.707-.293l-4-4a1 1 0 1 1 1.414-1.414l3.244 3.244 6.3-7.2a1 1 0 1 1 1.5 1.317l-7 8a1 1 0 0 1-.719.341z" fill="#fff"></path></symbol></svg>